Coordinates
version=1
nRows=5
nColumns=63
inDegrees=yes

Units are S.I. units (second, meters, Newtons, ...)
If the header above contains a line with 'inDegrees', this indicates whether rotational values are in degrees (yes) or radians (no).

endheader
time	pelvis_tilt	pelvis_list	pelvis_rotation	pelvis_tx	pelvis_ty	pelvis_tz	hip_flexion_r	hip_adduction_r	hip_rotation_r	knee_angle_r	knee_angle_r_beta	ankle_angle_r	subtalar_angle_r	mtp_angle_r	hip_flexion_l	hip_adduction_l	hip_rotation_l	knee_angle_l	knee_angle_l_beta	ankle_angle_l	subtalar_angle_l	mtp_angle_l	L5_S1_Flex_Ext	L5_S1_Lat_Bending	L5_S1_axial_rotation	L4_L5_Flex_Ext	L4_L5_Lat_Bending	L4_L5_axial_rotation	L3_L4_Flex_Ext	L3_L4_Lat_Bending	L3_L4_axial_rotation	L2_L3_Flex_Ext	L2_L3_Lat_Bending	L2_L3_axial_rotation	L1_L2_Flex_Ext	L1_L2_Lat_Bending	L1_L2_axial_rotation	L1_T12_Flex_Ext	L1_T12_Lat_Bending	L1_T12_axial_rotation	Abs_r3	Abs_r2	Abs_r1	Abs_t1	Abs_t2	neck_flexion	neck_bending	neck_rotation	arm_flex_r	arm_add_r	arm_rot_r	elbow_flex_r	pro_sup_r	wrist_flex_r	wrist_dev_r	arm_flex_l	arm_add_l	arm_rot_l	elbow_flex_l	pro_sup_l	wrist_flex_l	wrist_dev_l
      2.33898305	     -2.42143015	     -4.11727719	     75.57626662	      0.23345111	      1.01712675	      0.40763367	     -1.68222486	     -0.69438443	     14.98153314	      1.74574916	      0.03046907	     18.49450984	     -6.70381468	      0.00000000	     -0.72434230	      0.61464739	    -27.52468553	      5.37655810	      0.09383864	     23.40624815	     13.53269623	      0.00000000	     -0.06666001	     -0.72967885	     -1.33485943	     -0.12379431	     -0.97047287	     -1.41828815	     -0.10951573	     -1.77414116	     -1.41828815	     -0.07618573	     -1.77414116	     -1.16800200	     -0.06190049	     -1.48796111	     -1.08457329	     -0.03808953	     -1.13027254	     -1.00114457	     -0.47614580	     -8.25427310	     -7.42408771	      0.00000000	      0.00000000	     25.58522088	      9.02679322	    -30.18835355	     52.27556082	    -39.37900629	      5.56852372	    139.56638494	     83.99445309	      9.73732234	      5.63921736	     -1.35581590	    -15.87952173	    135.70323387	      0.68170735	      2.97458170	     -2.73839508	     -5.81040332
      2.35593220	     -2.66474802	     -4.20775871	     75.31478984	      0.23378051	      1.01681329	      0.40784160	     -1.47301864	     -0.90521124	     15.89963574	      1.77560574	      0.03099017	     18.49490277	     -7.64361685	      0.00000000	     -0.53536813	      0.82381117	    -27.84188138	      5.46738265	      0.09542383	     23.40919513	     13.57381411	      0.00000000	     -0.07535795	     -0.74604222	     -1.42582835	     -0.13994725	     -0.99223615	     -1.51494263	     -0.12380558	     -1.81392704	     -1.51494263	     -0.08612660	     -1.81392704	     -1.24759981	     -0.06997739	     -1.52132929	     -1.15848554	     -0.04305953	     -1.15561939	     -1.06937127	     -0.53827432	     -8.43937875	     -7.93002956	      0.00000000	      0.00000000	     23.82978164	      7.93578160	    -30.94025134	     52.93497446	    -38.95534852	      6.74936955	    139.22359591	     84.31084913	      8.38259151	      6.01569666	     -1.83782512	    -15.88486114	    132.89299098	      0.65198899	      2.78307539	     -2.07628021	     -6.29041985
      2.37288136	     -2.92215487	     -4.36317337	     74.92086763	      0.23418540	      1.01647218	      0.40827932	     -1.14134993	     -1.12115092	     16.70480277	      1.86272465	      0.03251068	     18.56114922	     -8.17253471	      0.00000000	     -0.28076184	      1.03345832	    -28.23647184	      5.53891298	      0.09667227	     23.37703784	     13.55653404	      0.00000000	     -0.08148610	     -0.76199144	     -1.52964924	     -0.15132784	     -1.01344861	     -1.62525231	     -0.13387351	     -1.85270598	     -1.62525231	     -0.09313046	     -1.85270598	     -1.33844308	     -0.07566799	     -1.55385294	     -1.24284000	     -0.04656116	     -1.18032474	     -1.14723693	     -0.58204707	     -8.61979955	     -8.50745016	      0.00000000	      0.00000000	     21.77191238	      7.11176100	    -31.48142392	     53.64893863	    -38.58816818	      7.75734136	    138.91099943	     84.52285387	      7.71295870	      6.13320866	     -2.38887635	    -15.87964711	    131.65467512	      0.61925201	      2.74683845	     -2.84775459	     -7.13971650
      2.38983051	     -3.22789557	     -4.51608452	     74.42792326	      0.23472029	      1.01619067	      0.40896664	     -0.75638691	     -1.38216240	     17.17332898	      2.01067140	      0.03509284	     18.72039060	     -8.15822654	      0.00000000	      0.02699456	      1.27427243	    -28.63950991	      5.68679951	      0.09925338	     23.34808627	     13.35567066	      0.00000000	     -0.08971093	     -0.78321150	     -1.62891608	     -0.16660217	     -1.04167130	     -1.73072333	     -0.14738609	     -1.90430044	     -1.73072333	     -0.10253062	     -1.90430044	     -1.42530157	     -0.08330557	     -1.59712489	     -1.32349431	     -0.05126082	     -1.21319462	     -1.22168706	     -0.64079619	     -8.85984515	     -9.05954255	      0.00000000	      0.00000000	     19.66912685	      6.66865850	    -31.76748257	     54.09082916	    -38.28288552	      8.37285332	    138.93023935	     84.64516137	      7.44319801	      6.48028446	     -2.87007044	    -15.92509500	    131.31330135	      0.57463189	      2.62411807	     -3.33666295	     -7.63063595
      2.40677966	     -3.50460297	     -4.71210883	     73.76979493	      0.23527762	      1.01551843	      0.40997516	     -0.29337566	     -1.59904900	     18.03315762	      2.19128752	      0.03824518	     18.77227138	     -8.52850840	      0.00000000	      0.31608280	      1.50481136	    -29.37958724	      5.68567214	      0.09923370	     23.38261824	     13.45358091	      0.00000000	     -0.10068240	     -0.78548189	     -1.73945563	     -0.18697728	     -1.04469091	     -1.84817161	     -0.16541111	     -1.90982067	     -1.84817161	     -0.11506991	     -1.90982067	     -1.52202368	     -0.09349368	     -1.60175467	     -1.41330770	     -0.05752992	     -1.21671145	     -1.30459173	     -0.71916431	     -8.88552824	     -9.67433040	      0.00000000	      0.00000000	     18.20659373	      5.61503202	    -31.52182031	     54.61656074	    -37.87558670	      9.08535812	    139.45060532	     85.08410409	      6.31699761	      7.74240385	     -3.59361073	    -15.78947565	    129.81058871	      0.59764475	      2.57012720	     -5.08834817	     -8.98009312
